<mxfile host="app.diagrams.net" agent="Mozilla/5.0 (Windows NT 10.0; Win64; x64; rv:134.0) Gecko/20100101 Firefox/134.0" version="26.0.6">
  <diagram name="第 1 页" id="PTFm1svTPoPxv_BnlHvM">
    <mxGraphModel dx="794" dy="467" grid="1" gridSize="10" guides="1" tooltips="1" connect="1" arrows="1" fold="1" page="1" pageScale="1" pageWidth="827" pageHeight="1169" math="0" shadow="0">
      <root>
        <mxCell id="0" />
        <mxCell id="1" parent="0" />
        <mxCell id="FBiTa0hdW8phl26FvE-j-1" value="actor" style="rounded=0;whiteSpace=wrap;html=1;fillColor=#dae8fc;strokeColor=#6c8ebf;" vertex="1" parent="1">
          <mxGeometry x="280" y="80" width="120" height="40" as="geometry" />
        </mxCell>
        <mxCell id="FBiTa0hdW8phl26FvE-j-2" value="destroy" style="rounded=0;whiteSpace=wrap;html=1;fillColor=#d5e8d4;strokeColor=#82b366;" vertex="1" parent="1">
          <mxGeometry x="280" y="120" width="120" height="40" as="geometry" />
        </mxCell>
        <mxCell id="FBiTa0hdW8phl26FvE-j-3" value="promise" style="rounded=0;whiteSpace=wrap;html=1;fillColor=#f8cecc;strokeColor=#b85450;" vertex="1" parent="1">
          <mxGeometry x="280" y="160" width="120" height="80" as="geometry" />
        </mxCell>
        <mxCell id="FBiTa0hdW8phl26FvE-j-4" value="&lt;div&gt;协程当前执行点、&lt;/div&gt;&lt;div&gt;局部变量等&lt;br&gt;&lt;/div&gt;" style="rounded=0;whiteSpace=wrap;html=1;fillColor=#e1d5e7;strokeColor=#9673a6;" vertex="1" parent="1">
          <mxGeometry x="280" y="240" width="120" height="120" as="geometry" />
        </mxCell>
        <mxCell id="FBiTa0hdW8phl26FvE-j-5" value="" style="endArrow=none;html=1;rounded=0;entryX=0;entryY=0;entryDx=0;entryDy=0;" edge="1" parent="1" target="FBiTa0hdW8phl26FvE-j-1">
          <mxGeometry width="50" height="50" relative="1" as="geometry">
            <mxPoint x="200" y="80" as="sourcePoint" />
            <mxPoint x="440" y="230" as="targetPoint" />
          </mxGeometry>
        </mxCell>
        <mxCell id="FBiTa0hdW8phl26FvE-j-6" value="" style="endArrow=none;html=1;rounded=0;entryX=0;entryY=1;entryDx=0;entryDy=0;" edge="1" parent="1" target="FBiTa0hdW8phl26FvE-j-4">
          <mxGeometry width="50" height="50" relative="1" as="geometry">
            <mxPoint x="200" y="360" as="sourcePoint" />
            <mxPoint x="440" y="230" as="targetPoint" />
          </mxGeometry>
        </mxCell>
        <mxCell id="FBiTa0hdW8phl26FvE-j-7" value="低地址" style="text;html=1;align=center;verticalAlign=middle;whiteSpace=wrap;rounded=0;" vertex="1" parent="1">
          <mxGeometry x="170" y="90" width="60" height="30" as="geometry" />
        </mxCell>
        <mxCell id="FBiTa0hdW8phl26FvE-j-8" value="高地址" style="text;html=1;align=center;verticalAlign=middle;whiteSpace=wrap;rounded=0;" vertex="1" parent="1">
          <mxGeometry x="170" y="320" width="60" height="30" as="geometry" />
        </mxCell>
        <mxCell id="FBiTa0hdW8phl26FvE-j-9" value="" style="endArrow=classic;startArrow=classic;html=1;rounded=0;entryX=0.5;entryY=1;entryDx=0;entryDy=0;exitX=0.5;exitY=0;exitDx=0;exitDy=0;" edge="1" parent="1" source="FBiTa0hdW8phl26FvE-j-8" target="FBiTa0hdW8phl26FvE-j-7">
          <mxGeometry width="50" height="50" relative="1" as="geometry">
            <mxPoint x="430" y="280" as="sourcePoint" />
            <mxPoint x="480" y="230" as="targetPoint" />
          </mxGeometry>
        </mxCell>
        <mxCell id="FBiTa0hdW8phl26FvE-j-10" value="" style="shape=curlyBracket;whiteSpace=wrap;html=1;rounded=1;labelPosition=left;verticalLabelPosition=middle;align=right;verticalAlign=middle;flipH=1;" vertex="1" parent="1">
          <mxGeometry x="414" y="80" width="20" height="40" as="geometry" />
        </mxCell>
        <mxCell id="FBiTa0hdW8phl26FvE-j-11" value="" style="shape=curlyBracket;whiteSpace=wrap;html=1;rounded=1;labelPosition=left;verticalLabelPosition=middle;align=right;verticalAlign=middle;flipH=1;" vertex="1" parent="1">
          <mxGeometry x="414" y="120" width="20" height="40" as="geometry" />
        </mxCell>
        <mxCell id="FBiTa0hdW8phl26FvE-j-12" value="" style="shape=curlyBracket;whiteSpace=wrap;html=1;rounded=1;labelPosition=left;verticalLabelPosition=middle;align=right;verticalAlign=middle;flipH=1;" vertex="1" parent="1">
          <mxGeometry x="414" y="160" width="20" height="80" as="geometry" />
        </mxCell>
        <mxCell id="FBiTa0hdW8phl26FvE-j-13" value="" style="shape=curlyBracket;whiteSpace=wrap;html=1;rounded=1;labelPosition=left;verticalLabelPosition=middle;align=right;verticalAlign=middle;flipH=1;" vertex="1" parent="1">
          <mxGeometry x="414" y="240" width="20" height="120" as="geometry" />
        </mxCell>
        <mxCell id="FBiTa0hdW8phl26FvE-j-14" value="释放协程帧内存的函数入口地址" style="text;html=1;align=center;verticalAlign=middle;whiteSpace=wrap;rounded=0;" vertex="1" parent="1">
          <mxGeometry x="444" y="125" width="96" height="30" as="geometry" />
        </mxCell>
        <mxCell id="FBiTa0hdW8phl26FvE-j-15" value="存放协程运行体的入口地址" style="text;html=1;align=center;verticalAlign=middle;whiteSpace=wrap;rounded=0;" vertex="1" parent="1">
          <mxGeometry x="444" y="85" width="96" height="30" as="geometry" />
        </mxCell>
        <mxCell id="FBiTa0hdW8phl26FvE-j-16" value="promise对象体，如果用户添加了成员变量会占用更多内存" style="text;html=1;align=center;verticalAlign=middle;whiteSpace=wrap;rounded=0;" vertex="1" parent="1">
          <mxGeometry x="444" y="185" width="158" height="30" as="geometry" />
        </mxCell>
        <mxCell id="FBiTa0hdW8phl26FvE-j-17" value="协程状态" style="text;html=1;align=center;verticalAlign=middle;whiteSpace=wrap;rounded=0;" vertex="1" parent="1">
          <mxGeometry x="444" y="285" width="60" height="30" as="geometry" />
        </mxCell>
        <mxCell id="FBiTa0hdW8phl26FvE-j-18" value="&lt;font style=&quot;font-size: 16px;&quot;&gt;协程帧&lt;/font&gt;" style="text;html=1;align=center;verticalAlign=middle;whiteSpace=wrap;rounded=0;" vertex="1" parent="1">
          <mxGeometry x="310" y="40" width="60" height="30" as="geometry" />
        </mxCell>
      </root>
    </mxGraphModel>
  </diagram>
</mxfile>
